<?xml version="1.0" encoding="utf-8"?>
<!-- Generator: Adobe Illustrator 18.1.1, SVG Export Plug-In . SVG Version: 6.00 Build 0)  -->
<svg version="1.1" id="Layer_1" xmlns="http://www.w3.org/2000/svg" xmlns:xlink="http://www.w3.org/1999/xlink" x="0px" y="0px"
	 viewBox="0 0 249.1 103.5" enable-background="new 0 0 249.1 103.5" xml:space="preserve">
<g>
	<path fill="#EC394B" d="M0.5,60.6h247h0.5v0.5c0,1,0.1,2,0.2,3c0.2,1,0.4,2.1,0.7,3.2l0,0l0,0c0.1,0.7-0.1,1.1-0.4,1.5v0
		c-0.3,0.3-0.6,0.5-1,0.6l-0.1,0l-0.1,0l-7.2-0.1v2c1.3,0.5,1.7,1,1.6,1.5c-0.2,0.6-1.3,0.9-2.5,0.9c-1.1,0-2.3-0.2-2.6-0.8
		c-0.2-0.5,0.2-1.1,1.6-1.7v-1.9l-7.4-0.1v2.2c0.9,0.6,1.1,1.2,0.8,1.6c-0.2,0.4-0.9,0.7-1.6,0.7h0c-0.7,0-1.3-0.1-1.6-0.6
		c-0.3-0.5-0.2-1.1,0.8-1.9v-2.2l-7.4-0.1v2.3c1.1,0.5,1.3,1.1,1.1,1.6c-0.2,0.5-1.1,0.8-1.9,0.8c-0.8,0-1.7-0.2-2-0.7l0,0
		c-0.3-0.5,0-1.1,1.2-1.8V69l-3-0.1l-0.3,0l-0.2-0.3c-0.3-0.5-0.6-0.9-1-1.2c-0.4-0.3-0.8-0.5-1.3-0.6L105.8,68
		c-0.1,2-0.3,4-0.6,5.9c-0.3,2-0.6,3.9-1,5.6c-1.4,6.2-4,9.5-7.6,11c-3.6,1.5-8.2,1.1-13.7-0.1c-3.1-0.6-5.1-1.1-6.6-1.3
		c-1.5-0.2-2.7-0.2-4.1-0.1c-5.8,0.6-10,3.1-14.6,5.9c-6.7,4-14.3,8.5-28.9,8.6c-7,0-13.1-2-17.8-6.3C6.5,93.1,3.3,87,1.6,78.8
		c-0.5-2.7-0.9-5.6-1.2-8.5c-0.3-3-0.4-6.1-0.4-9.1v-0.5H0.5L0.5,60.6z M247,61.7H1.1c0,2.9,0.2,5.7,0.4,8.5
		c0.3,2.9,0.7,5.7,1.2,8.4c1.6,8,4.7,13.9,9,17.8c4.5,4.1,10.3,6.1,17,6C43,102.4,50.5,98,57.1,94c4.7-2.8,9-5.4,15.1-6
		c1.5-0.2,2.7-0.1,4.3,0.1c1.6,0.2,3.6,0.6,6.7,1.3c5.4,1.1,9.8,1.5,13.1,0.2c3.3-1.3,5.6-4.4,6.9-10.3c0.4-1.7,0.7-3.5,1-5.5
		c0.3-2,0.5-4.1,0.6-6.3l0-0.5l0.5,0l109.5-1.2l0.1,0l0.1,0c0.7,0.2,1.3,0.4,1.8,0.8c0.4,0.3,0.8,0.8,1.1,1.3L221,68l0.5,0v0l0.1,0
		l8.5,0.2l0.5,0v0l8.4,0.2l0.5,0v0l0.3,0l7.6,0.1c0.2-0.1,0.4-0.1,0.5-0.2l0,0c0.1-0.1,0.1-0.3,0.1-0.6c-0.3-1.1-0.6-2.2-0.7-3.3
		C247.1,63.4,247,62.5,247,61.7L247,61.7z M239.6,72.2l-0.4-0.1v0l-0.1,0c-1,0.4-1.4,0.5-1.4,0.5c0,0.1,0.8,0.1,1.5,0.1
		c0.8,0,1.5-0.1,1.5-0.2C240.9,72.5,240.5,72.5,239.6,72.2L239.6,72.2z M230.2,72.2L230.2,72.2c-0.5,0.3-0.7,0.4-0.7,0.5
		c0.1,0.1,0.4,0.1,0.7,0.1c0.3,0,0.6-0.1,0.7-0.2C230.9,72.5,230.7,72.4,230.2,72.2L230.2,72.2z M221.4,72.2l-0.2-0.1
		c-0.7,0.4-0.9,0.5-0.9,0.5l0,0c0.1,0.1,0.5,0.1,1,0.1c0.5,0,0.9-0.1,1-0.2C222.3,72.5,222,72.5,221.4,72.2L221.4,72.2z"/>
	<path d="M247.7,55.4c0,2.7-1.4,4-4.1,4h-12.4c-2.7,0-4.1-1.3-4.1-4v-7h7.1v5.5h6.5v-5.2L229.3,42c-1.5-0.9-2.2-2.1-2.2-3.5v-7.6
		c0-2.7,1.4-4,4.2-4h12.3c2.7,0,4.1,1.3,4.1,4v6.6h-7v-5h-6.5v4.7l11.3,6.6c1.5,0.9,2.3,2.1,2.3,3.6V55.4L247.7,55.4z M224.1,59.4
		h-7.9l-6.5-14.9v14.9h-7.4V8.9h7.4v30.3l5.8-12.4h7.7V27l-7.5,14.8L224.1,59.4L224.1,59.4z M196.8,59.4h-7.3V8.9h7.3V59.4
		L196.8,59.4z M176.8,53.3V33h-7v20.3H176.8L176.8,53.3z M184.1,55.4c0,2.7-1.4,4-4.1,4h-13.2c-2.8,0-4.2-1.3-4.2-4V30.9
		c0-2.7,1.4-4,4.2-4H180c2.7,0,4.1,1.3,4.1,4V55.4L184.1,55.4z M158.6,15.6h-13.1v14.9h11.2v6.6h-11.2v22.3H138V8.9h20.6V15.6
		L158.6,15.6z"/>
	<path d="M105.9,59.4h-8L94,49.2l-4,10.2h-7.9v-0.1l7.9-16.6l-7.1-15.8h7.6l3.6,9.5l3.7-9.5h7.4V27L98,42.6L105.9,59.4L105.9,59.4z
		 M71.8,53.6v-8.7h-7.1v9L71.8,53.6L71.8,53.6z M78.8,59.4h-7.1v-1.1c-1.7,0.3-3.4,0.5-5,0.8c-2.2,0.3-3.9,0.5-5,0.5
		c-2.7,0-4-1.3-4-4V43.9c0-2.7,1.4-4,4.2-4h10v-7.5h-7.1V37H58v-6.1c0-2.7,1.4-4,4.2-4h12.5c2.7,0,4.1,1.3,4.1,4V59.4L78.8,59.4z
		 M45.2,53.3V33h-7v20.3H45.2L45.2,53.3z M52.4,55.4c0,2.7-1.4,4-4.1,4H35.1c-2.8,0-4.2-1.3-4.2-4V30.9c0-2.7,1.4-4,4.2-4h13.2
		c2.7,0,4.1,1.3,4.1,4V55.4L52.4,55.4z M25.4,54.8c0,3.1-1.5,4.6-4.6,4.6H5c-3,0-4.5-1.5-4.5-4.6V13.6C0.5,10.5,2,8.9,5,8.9h15.7
		c3.1,0,4.6,1.6,4.6,4.6v11.8h-7.5v-10H8.1V53h9.8V42.3h7.5V54.8L25.4,54.8z"/>
	<path fill-rule="evenodd" clip-rule="evenodd" fill="#EC394B" d="M119.8,23.1c-2.6-16.4,5.6-16.5,5.6-16.5s5.4,5.3-5.2,16.1
		C120,22.8,119.9,23,119.8,23.1L119.8,23.1z M122.6,37.4l-1.5-7.4c15.2-15.8,3.4-30,3.4-30c-0.8,0.1-9.9,2.3-5.7,24.2
		c-7.7,8-12.2,14.4-11.5,21.9c0.9,9.4,9.3,15,18.6,13l1.7,8.3l0.5,2.5c2.5,8.8-7.1,13.1-11.8,6.9c0.5,0.2,1,0.3,1.6,0.3
		c2.4,0,4.3-1.9,4.3-4.3c0-2.4-1.9-4.3-4.3-4.3c-2.4,0-4.3,1.9-4.3,4.3c0,4.2,4,8,8.2,8c1.4,0,2.8-0.4,3.9-1c3.6-2,4.4-6,3.7-9.4
		l-2.4-11.6c10.7-3.9,9.1-21.6-2.3-21.6C123.9,37.1,123.2,37.2,122.6,37.4L122.6,37.4z M120.2,30.9l1.4,6.8
		c-3.6,1.3-6.2,4.7-6.2,8.7c0,3.4,1.9,6.4,4.7,8c-1.2-1.2-1.9-2.9-1.9-4.7c0-3,1.9-5.5,4.6-6.4l3,14.6c-0.4,0.1-0.8,0.2-1.2,0.2
		c-8.7,1.3-14.1-4.8-14.3-10.4C109.9,42.8,112.9,38.1,120.2,30.9L120.2,30.9z M126.7,57.5l-3-14.5c0.4-0.1,0.8-0.1,1.2-0.1
		c3,0,5.5,1.9,6.4,4.5C132.7,51,130.1,56,126.7,57.5L126.7,57.5z"/>
</g>
</svg>
